<svg width="215" height="215" viewBox="0 0 215 215" fill="none" xmlns="http://www.w3.org/2000/svg">
<path d="M49.0495 91.4821C48.952 96.6263 48.0422 101.731 46.6708 106.682C45.4858 110.962 43.9006 115.421 41.2799 119.061C38.5263 119.267 35.7305 118.795 34.1702 116.287C33.4081 115.061 33.1622 113.496 33.2102 112.074C33.2402 111.186 34.4003 109.747 34.9244 108.76C36.1058 106.536 37.5024 103.956 37.5956 101.383C37.5992 101.284 37.5689 101.208 37.5179 101.15C39.1981 100.228 40.7552 99.0209 42.1316 97.8893C44.5363 95.9133 46.6008 93.414 49.0495 91.4821ZM36.1216 101.828C36.2679 101.77 36.4008 101.715 36.5175 101.665C36.5179 101.662 36.5182 101.659 36.5182 101.656C36.3867 101.716 36.2542 101.772 36.1216 101.828ZM32.4991 102.682C31.8331 102.702 31.2303 102.637 30.682 102.507C31.7088 102.907 33.0578 102.749 34.2522 102.443C33.6761 102.577 33.0918 102.664 32.4991 102.682ZM60.229 107.484C60.1 107.501 59.9715 107.512 59.8429 107.526C59.6475 107.555 59.4387 107.575 59.2162 107.586C55.3397 107.893 51.5662 107.115 47.8725 105.901C47.8165 106.105 47.7652 106.31 47.7074 106.512C46.4209 111.007 44.7909 115.631 41.9503 119.402C41.9181 119.606 41.7195 119.826 41.4165 119.853C41.181 119.873 40.9469 119.886 40.7143 119.894C36.9856 131.972 29.6133 142.588 21.8711 152.432C20.5987 154.05 19.3122 155.657 18.0124 157.253C17.4034 158 17.4453 157.913 17.5891 158.988C18.1243 162.995 20.0855 166.562 23.2443 168.954C23.322 168.971 23.3754 169.004 23.3841 169.06C23.7872 169.358 24.2105 169.635 24.6518 169.893C26.3291 168.147 27.9837 166.376 29.6061 164.575C33.9557 159.34 40.4308 151.219 45.9077 143.015C46.3902 142.292 46.8547 141.572 47.3087 140.852C51.9693 132.914 55.723 124.502 58.5936 115.735C58.6766 115.481 59.3784 115.341 59.5839 115.458C59.615 115.472 59.6345 115.492 59.637 115.518C59.6374 115.52 59.6377 115.523 59.6377 115.526C59.6384 115.529 59.6384 115.532 59.6388 115.535C60.6656 124.54 59.3134 134.029 54.8641 142.014C52.6259 146.032 49.7249 149.708 46.163 152.638C45.0369 153.564 51.4651 156.352 52.0664 156.486C53.401 156.782 54.7817 156.93 56.1372 156.737C56.1535 156.709 56.165 156.681 56.182 156.654C56.2672 156.518 56.4193 156.444 56.5775 156.425C63.6739 149.264 69.1308 140.796 70.7583 130.699C72.2265 121.592 71.3069 112.287 71.261 103.11C67.8577 105.142 64.1943 106.974 60.229 107.484ZM194.017 155.505C190.324 151.241 186.596 147.003 182.768 142.859C180.24 140.122 177.523 137.544 175.334 134.513C172.758 130.945 170.745 127.014 169.391 122.824C167.978 118.449 167.348 113.883 165.905 109.517C164.469 105.176 162.568 101.006 159.843 97.3204C156.28 99.4409 151.481 100.287 147.418 100.194C144.344 100.124 141.149 99.7154 138.127 98.9118C137.841 104.698 135.177 110.287 133.53 115.76C132.427 119.428 131.848 123.315 131.382 127.113C130.908 130.974 130.441 135.121 131.691 138.886C132.598 141.615 134.041 144.03 135.765 146.249L143.683 154.444C145.617 156.25 147.565 158.044 149.532 159.816C152.347 161.254 155.427 157.693 156.958 155.744C158.523 153.75 160.254 151.355 160.812 148.822C156.11 142.63 150.492 137.361 144.039 133.022C143.926 132.947 143.873 132.802 143.947 132.678C146.6 128.206 147.479 122.957 149.967 118.402C149.629 117.271 149.313 116.133 149.03 114.989C148.977 114.773 150.026 114.503 150.077 114.708C150.362 115.864 150.683 117.008 151.026 118.144C151.05 118.177 151.062 118.215 151.06 118.26C151.986 121.303 153.112 124.274 154.378 127.187C154.772 128.094 155.179 128.996 155.598 129.892C157.772 134.532 160.266 139.033 162.849 143.445C164.25 145.839 165.751 148.164 167.327 150.436C170.519 154.615 174.459 159.593 177.641 163.572C179.624 165.864 181.652 168.117 183.703 170.345C184.478 169.933 185.205 169.455 185.888 168.92C186.163 168.706 186.431 168.482 186.692 168.251C188.751 166.418 190.388 164.084 191.739 161.658C191.726 161.543 191.794 161.441 191.902 161.362C192.004 161.176 192.105 160.99 192.203 160.804C192.882 159.516 193.52 158.169 193.855 156.744C193.921 156.458 194.166 155.676 194.017 155.505ZM32.9343 102.192C36.8667 101.882 40.3788 98.7381 43.1602 96.195C45.0965 94.4253 46.8872 92.3232 49.0347 90.798C48.2842 88.4504 47.8049 85.8553 46.5823 83.6897C44.4037 85.0698 42.2157 86.435 40.027 87.7977C39.9851 87.8335 39.9335 87.8649 39.8757 87.8923C37.7585 89.2106 35.6406 90.53 33.5335 91.8653C33.2062 92.0726 32.2896 91.9476 32.8881 91.5684C34.9511 90.2609 37.0242 88.969 39.0974 87.6782C39.3336 85.7358 39.5781 83.789 39.9295 81.8643C39.9942 81.5111 41.0484 81.3316 40.9755 81.7311C40.658 83.4698 40.4287 85.2272 40.213 86.9822C42.3299 85.6635 44.4464 84.3427 46.5513 83.0049C46.7005 82.9099 47.227 82.733 47.3607 82.9508C47.5026 83.1816 47.633 83.4185 47.758 83.6583C48.0018 83.2805 48.2047 82.8778 48.3842 82.4603C48.338 82.413 48.3077 82.3516 48.3062 82.271C48.2033 76.8686 45.6469 71.1357 42.6087 66.7391C38.2938 67.6482 34.5874 70.115 32.3954 74.241C31.3195 76.2654 30.4761 78.5686 30.2627 80.8708C30.2591 80.9083 30.245 80.9426 30.2266 80.9759C29.4569 85.5888 28.0707 90.1912 27.8388 94.8775C27.6673 98.3455 28.4983 102.541 32.9343 102.192ZM72.5226 111.54C72.5649 112.862 72.6028 114.184 72.6292 115.506C72.7491 113.565 72.8376 112.026 72.8668 111.513C72.8387 111.518 72.8108 111.523 72.783 111.527C72.6653 111.545 72.5826 111.547 72.5226 111.54ZM48.1701 84.5262L48.0931 84.1881C48.0704 84.1925 48.0476 84.1965 48.0249 84.2001C48.0747 84.3084 48.1228 84.4171 48.1701 84.5262ZM93.6687 48.9083C92.7173 48.754 91.822 48.4611 90.949 48.1007C90.8486 48.0913 90.7623 48.0613 90.7128 48.0035C90.2967 47.8251 89.8854 47.6322 89.4754 47.4321C89.4678 47.4935 89.4397 47.5618 89.3779 47.6384C87.152 50.4028 85.539 53.8184 83.7725 56.8823C82.849 58.4844 81.9384 60.0949 80.9817 61.6769C80.5017 62.4711 80.1423 63.2028 79.2119 63.534C75.7479 64.7678 72.571 64.2166 68.9983 63.9082C67.0154 63.737 64.7884 63.5033 62.5777 63.5167C61.9138 63.5387 61.2955 63.5658 60.7328 63.5951C59.9072 63.6622 59.0938 63.7749 58.3075 63.9562C62.7799 68.3319 65.1926 74.3104 67.2419 80.1137C69.7864 87.3177 71.5074 94.6889 72.2886 102.294C72.2886 102.296 72.2882 102.299 72.2886 102.301C72.2976 102.312 72.3038 102.324 72.3038 102.338C72.3084 105.315 72.4182 108.314 72.5158 111.318C72.6263 111.231 72.8036 111.145 72.9723 111.12C75.01 110.811 77.0839 109.972 78.6008 108.653C78.9663 108.298 79.3326 107.909 79.6807 107.501C80.6844 106.164 81.1699 104.49 80.7675 102.508C79.8158 97.8225 78.4936 93.2161 76.8441 88.7285C75.1321 84.0704 73.1987 79.4138 70.7814 75.0685C70.7594 75.0515 70.75 75.0298 70.7475 75.0064C70.7384 74.9897 70.7301 74.9731 70.7211 74.9569C70.6882 74.8984 70.7879 74.8142 70.936 74.7402C71.0855 74.6232 71.2921 74.5224 71.4474 74.517C73.1731 74.4545 74.8121 73.8842 76.4544 73.4027C77.444 73.1127 78.4661 72.9578 79.4698 72.7461C80.1095 72.5717 80.7065 72.4027 81.2277 72.2463C83.7515 71.2028 85.1197 68.6374 86.59 66.4299C90.0533 61.2304 92.9543 55.5405 94.0844 49.3673C94.0681 49.139 94.0475 48.9617 94.0295 48.8411C93.8904 48.892 93.7535 48.922 93.6687 48.9083ZM152.27 99.2867C154.434 98.9631 156.576 98.3664 158.434 97.4198C156.906 97.9637 154.535 98.7521 152.27 99.2867ZM68.9502 103.819C67.3791 104.55 65.3916 105.454 63.6222 106.195C65.4736 105.594 67.2386 104.761 68.9502 103.819ZM48.0801 105.13C48.0559 105.223 48.0303 105.314 48.0061 105.405C48.0234 105.4 48.0411 105.393 48.0588 105.388C48.0642 105.319 48.0715 105.233 48.0801 105.13ZM178.503 136.897C178.432 136.811 178.36 136.726 178.289 136.641C178.352 136.715 178.411 136.792 178.475 136.865C178.484 136.876 178.494 136.886 178.503 136.897Z" fill="#F5A623"/>
<path d="M202.126 172.185C202.115 172.165 202.105 172.145 202.093 172.126C202.089 172.119 202.085 172.111 202.081 172.104C202.062 172.072 202.035 172.048 202.005 172.027C200.429 170.301 198.566 168.839 196.869 167.235C195.243 165.698 193.166 163.779 192.799 161.458C193.907 159.618 194.827 157.594 195.078 155.521C195.18 154.674 193.337 153.231 192.838 152.661C190.537 150.031 188.218 147.415 185.874 144.822C183.456 142.148 180.873 139.611 178.504 136.896C178.495 136.886 178.484 136.875 178.475 136.865C178.411 136.791 178.353 136.715 178.289 136.641C175.234 133.081 172.882 129.007 171.183 124.641C169.451 120.191 168.78 115.484 167.469 110.916C166.115 106.196 164.133 101.618 161.303 97.5914C161.079 97.279 160.849 96.9705 160.614 96.6671C160.607 96.6585 160.597 96.6523 160.589 96.6447C160.584 96.6299 160.585 96.6169 160.576 96.6014C159.63 95.0043 159.01 93.2826 158.533 91.5132C159.044 92.453 159.576 93.3801 160.191 94.2563C162.305 97.2663 164.597 100.206 167.029 102.966C169.2 105.429 171.793 107.396 173.001 110.559C174.063 113.337 174.241 116.379 175.37 119.138C175.467 119.373 175.88 119.352 176.162 119.22C176.275 119.228 176.4 119.215 176.512 119.176C177.942 118.674 178.039 117.239 177.916 115.813C178.811 117.337 179.767 118.818 180.905 120.184C181.659 121.087 182.766 122.744 184.067 121.762C184.263 121.614 184.38 121.423 184.44 121.204C184.825 121.241 185.19 121.198 185.462 121.051L185.462 121.05C185.853 120.839 186.049 120.411 185.818 119.691L185.818 119.691C186.738 119.479 186.789 118.749 186.383 117.787C186.365 117.744 186.344 117.703 186.325 117.66C186.36 117.652 186.392 117.643 186.415 117.633C189.02 116.527 185.077 112.81 183.932 111.829C183.921 111.803 183.905 111.777 183.88 111.751C181.649 109.41 179.331 107.15 177.216 104.701C175.053 102.199 174.132 99.3268 172.844 96.3446C171.744 93.799 170.274 91.2676 168.255 89.3519C167.137 88.2919 165.819 87.5341 164.836 86.3267C163.847 85.111 163.28 83.5717 162.689 82.1385C162.687 82.132 162.682 82.1281 162.679 82.1219C162.921 81.7857 163.116 81.4155 163.26 81.0102C163.298 80.9579 163.318 80.9001 163.319 80.839C163.324 80.8253 163.329 80.8123 163.334 80.7982C163.376 80.6574 163.311 80.5707 163.197 80.5277C160.912 76.0964 159.06 68.3008 153.698 66.6705C155.335 66.2985 156.496 65.445 156.29 63.8154C156.082 62.1703 154.326 61.1265 153.616 59.7276C152.62 57.7654 155.926 56.1986 155.981 54.2486C156.046 51.9675 154.086 51.4716 153.039 49.8466C152.547 49.0824 152.543 47.8129 152.335 46.9399C152.052 45.7484 151.693 44.5742 151.354 43.3979C151.057 42.3653 150.331 41.6996 149.451 41.251C148.797 40.7703 147.835 40.3445 146.413 40.1347C145.964 40.0682 145.563 40.009 145.201 39.9559C144.115 39.681 143.026 39.4152 141.951 39.1309C138.927 38.3324 134.946 38.4516 132.562 40.7949C131.274 42.0619 130.851 43.5636 130.328 45.2474C129.589 47.6301 127.474 48.6558 126.275 50.673C125.432 52.0942 126.049 53.8322 126.617 55.2133C127.227 56.7003 127.45 58.0052 126.96 59.1599C126.177 60.0076 125.165 60.7501 124.808 61.4537C123.421 62.9587 126.349 64.489 127.698 65.034C127.919 65.1232 128.143 65.2005 128.368 65.2713C127.094 65.2052 125.84 65.0301 124.599 64.6757C124.521 64.6534 124.369 64.6804 124.21 64.7288C123.981 64.6096 123.571 64.6512 123.412 64.8849C123.353 64.9708 123.299 65.0633 123.242 65.1525C123.222 65.0506 123.124 64.9741 122.911 64.9661C119.985 64.8589 116.947 63.724 114.121 62.9435C113.171 62.681 112.381 61.6791 111.705 61.0214C110.572 59.9187 109.499 58.7615 108.505 57.5313C105.683 54.0373 102.368 50.4986 101.021 46.1143C101.204 46.0478 101.35 45.9384 101.354 45.812C101.449 42.5986 103.238 39.089 99.8427 37.008C99.839 34.3674 99.1871 32.0006 96.4809 32.1729C96.3176 32.1574 96.1262 32.2061 96.0171 32.2574C93.6326 33.3843 92.6881 36.2224 92.0109 38.5794C91.2232 41.32 90.7692 44.2622 90.6836 47.1313C90.4019 46.9966 90.1209 46.859 89.8399 46.7185C89.5951 46.5964 88.8178 46.9031 88.9106 47.1158C88.7492 47.1335 88.5917 47.1971 88.4978 47.3134C86.5453 49.7376 85.1114 52.6956 83.5598 55.3791C82.5912 57.0546 81.6297 58.7348 80.6527 60.4059C79.8 61.8644 79.4836 62.7568 77.7146 63.1624C77.0854 63.3065 76.4469 63.4033 75.8025 63.4676C75.6869 63.4788 75.5714 63.4904 75.4551 63.4994C68.7777 64.0321 61.4068 60.9528 55.1758 64.2676C54.6745 62.8706 54.4105 61.3215 55.8382 60.9668C57.3097 60.6021 58.6297 60.3207 59.8527 59.3582C64.1485 55.9772 60.3796 50.1244 59.4738 46.0579C59.459 45.9922 59.4247 45.9431 59.3788 45.9048C59.3192 45.8177 59.2593 45.7307 59.199 45.6444C59.2477 45.5299 59.3015 45.3999 59.3586 45.2565C61.574 43.1053 61.4552 38.7272 58.5756 37.1329C56.9348 36.2242 54.8873 36.3774 53.1742 37.039C52.6133 37.2557 52.0466 37.5053 51.481 37.7794C51.0671 37.9618 50.65 38.1814 50.2361 38.4252C49.0073 39.0974 47.8115 39.8562 46.7337 40.6204C45.5834 41.4363 44.7206 42.5682 43.6295 43.4506C42.4466 44.407 40.9445 44.995 39.637 45.7592C38.0367 46.6943 37.0983 47.4174 37.2414 49.3627C37.6379 54.7452 40.648 59.8743 45.9713 61.5996C45.9713 62.9598 45.9713 64.32 45.9713 65.6802C40.4861 65.9063 35.52 68.0491 32.3117 72.6776C30.6705 75.0454 29.4754 78.0847 29.2074 80.9748C29.2052 80.9979 29.2078 81.0182 29.2106 81.0387C29.2067 81.0481 29.2013 81.0575 29.1998 81.0673C28.3532 86.1812 26.7749 91.2889 26.7543 96.5046C26.742 99.5898 28.0325 101.876 30.6813 102.506C31.23 102.636 31.8328 102.701 32.4984 102.681C33.0911 102.663 33.6755 102.576 34.2516 102.442C34.8869 102.295 35.5106 102.085 36.121 101.827C36.2535 101.772 36.3861 101.715 36.5176 101.655C36.5176 101.658 36.5172 101.661 36.5168 101.664C36.3287 104.638 34.4888 107.646 33.0662 110.175C32.4385 111.292 32.0971 111.718 32.1528 112.976C32.3536 117.552 35.6681 119.722 39.7244 119.891C35.8624 132.525 28.0173 143.509 19.8916 153.752C18.8178 155.106 17.7329 156.45 16.64 157.788C16.2398 158.277 16.5164 159.117 16.6024 159.694C16.6447 159.981 16.6959 160.266 16.7537 160.547C16.6389 160.58 16.5417 160.622 16.4933 160.671C12.9798 164.2 9.42044 168.901 12.8639 173.744C14.3559 175.843 16.2116 177.652 18.1562 179.327C19.6659 180.628 21.3255 182.004 23.1747 182.795C23.3907 182.888 24.0491 182.762 24.1181 182.491C25.1424 178.474 24.1611 174.243 23.5467 170.198C23.7735 170.336 24.0036 170.47 24.2391 170.597C24.3814 170.674 24.7541 170.583 24.9827 170.454C25.0524 170.427 25.1106 170.395 25.1442 170.36C32.8318 162.395 39.9812 153.919 45.9738 144.595C51.3062 136.297 55.5479 127.363 58.7916 118.059C59.6764 131.22 55.1766 144.517 44.774 153.073C44.7224 153.115 44.7065 153.167 44.7556 153.215C47.6836 156.044 51.8278 157.792 55.9246 157.134C54.8985 159.392 56.281 161.962 57.4809 163.929C59.1975 166.743 61.4614 169.168 63.5948 171.665C58.0844 172.067 52.3323 169.708 47.468 167.439C46.6619 167.063 40.5078 164.287 40.9004 163.394C42.2895 160.239 44.4309 157.826 47.2632 155.894C47.8487 155.495 47.0046 155.061 46.5557 155.367C43.3777 157.535 41.2045 160.264 39.658 163.777C39.5973 163.915 39.6359 164.08 39.7624 164.167C43.4319 166.701 47.524 168.652 51.6927 170.207C55.6909 171.699 60.1998 172.97 64.501 172.388C64.7462 172.355 65.2931 172.067 65.0171 171.739C63.2235 169.605 61.3483 167.549 59.6909 165.303C58.2111 163.297 55.4503 159.583 57.068 157.003C57.1255 156.911 57.146 156.83 57.1439 156.758C64.505 149.438 70.0262 140.876 71.7931 130.526C72.6379 125.576 72.7282 120.543 72.6285 115.505C72.6021 114.183 72.5642 112.861 72.522 111.539C72.5819 111.546 72.665 111.544 72.7824 111.527C72.8102 111.522 72.838 111.517 72.8662 111.512C76.124 111.005 79.3969 109.661 81.1508 106.717C82.0982 105.127 82.0364 103.324 81.6821 101.579C81.0876 98.6536 80.2962 95.7703 79.4103 92.9218C77.5062 86.8013 75.0708 80.6758 71.9668 75.0465C74.7497 74.7586 77.5174 73.7008 80.2262 73.1124C82.7479 72.5642 84.3833 71.0808 85.8367 69.016C90.2062 62.8085 94.092 55.9779 95.2698 48.3904C96.7669 54.9558 101.045 60.9101 104.764 66.3422C106.488 68.8618 107.973 71.767 111.006 72.8614C112.493 73.3981 114.165 73.505 115.694 73.9529C117.472 74.4737 119.226 75.0469 121.091 75.1148C121.192 75.1187 121.313 75.0833 121.426 75.0292C121.488 75.3167 121.557 75.6002 121.643 75.8736C121.711 76.0914 121.965 76.1492 122.207 76.1044C122.164 76.2279 122.215 76.3467 122.43 76.4107C124.401 76.9932 126.295 77.7788 128.323 78.1443C128.319 80.5049 129.055 82.8302 130.379 85.0279C131.673 87.1769 132.956 89.128 133.802 91.52C134.556 93.6499 135.04 95.8747 135.616 98.0562C135.611 98.0855 135.621 98.1126 135.649 98.1368C135.722 98.2567 135.883 98.2996 136.056 98.2881C136.403 98.4058 136.75 98.5229 137.103 98.629C136.966 104.85 133.941 110.902 132.222 116.786C131.176 120.366 130.708 124.225 130.254 127.921C129.795 131.666 129.556 135.511 130.643 139.166C132.239 144.531 136.354 148.815 140.301 152.588C143.07 155.235 145.897 157.824 148.744 160.387C148.779 160.451 148.838 160.511 148.936 160.561C151.135 161.685 153.395 160.418 155.16 158.904C159.932 160.446 158.103 164.766 156.805 168.412C156.239 170.001 155.046 174.717 158.286 174.226C161.291 173.771 163.741 170.664 165.464 168.432C167.189 166.199 170.247 162.137 169.233 159.09C168.471 157.437 167.022 156.401 165.505 155.483C163.922 154.526 161.716 153.831 160.572 152.31C160.559 152.292 160.542 152.278 160.525 152.264C161.144 151.113 161.625 149.919 161.881 148.733C161.899 148.692 161.908 148.65 161.903 148.605C161.91 148.48 161.85 148.396 161.752 148.348C157.893 143.269 153.421 138.769 148.34 134.908C147.422 134.211 144.789 133.089 145.484 131.833C146.217 130.506 146.76 129.072 147.287 127.654C148.283 124.976 149.123 122.248 150.362 119.677C153.054 128.133 157.201 136.21 161.801 143.725C167.84 153.593 175.073 162.404 182.903 170.899C182.987 170.99 183.266 170.941 183.508 170.851C183.587 170.837 183.656 170.819 183.701 170.798C185.064 170.157 186.199 169.389 187.208 168.507C191.66 171.989 190.795 179.971 196.724 182.012C198.86 182.747 201.003 182.206 202.431 180.431C204.379 178.008 203.542 174.619 202.126 172.185ZM185.7 119.356C185.697 119.349 185.695 119.343 185.693 119.337C185.728 119.336 185.772 119.334 185.831 119.33C185.796 119.332 185.751 119.342 185.7 119.356ZM165.637 88.4898C168.511 90.7478 170.255 93.318 171.797 96.6263C173.128 99.4843 173.891 102.261 175.917 104.748C178.067 107.388 180.572 109.736 182.917 112.197C182.952 112.234 182.997 112.259 183.046 112.278C183.961 113.103 187.018 116.176 186.137 117.253C185.496 115.956 184.589 114.779 183.783 113.591C183.608 113.333 182.653 113.75 182.736 113.871C183.366 114.8 184.014 115.714 184.596 116.674C184.903 117.181 185.182 117.704 185.413 118.25C185.502 118.46 185.565 118.677 185.614 118.9C185.639 119.015 185.636 119.1 185.625 119.163C184.895 117.341 183.516 115.7 182.485 114.069C182.293 113.764 181.31 114.147 181.438 114.35C182.215 115.578 183.049 116.769 183.796 118.018C184.135 118.587 184.449 119.172 184.702 119.785C184.793 120.006 184.856 120.234 184.899 120.469C184.914 120.546 184.912 120.623 184.903 120.701C184.762 120.663 184.623 120.62 184.489 120.564C184.481 120.562 184.473 120.561 184.465 120.559C184.191 118.624 181.316 115.468 180.73 114.548C180.532 114.238 179.548 114.618 179.683 114.828C180.057 115.415 183.485 120.118 183.404 121.328C181.014 119.175 179.409 116.381 177.856 113.59C177.804 113.496 177.678 113.463 177.531 113.468C177.235 113.422 176.645 113.596 176.65 113.87C176.671 114.932 177.485 117.914 176.358 118.697C175.342 116.133 175.018 113.344 174.198 110.716C173.255 107.692 170.933 105.576 168.781 103.378C166.106 100.645 163.782 97.4614 161.542 94.3704C160.038 92.2951 159.001 89.9222 157.679 87.7396C157.678 87.7353 157.677 87.7313 157.676 87.727C157.667 87.6797 157.64 87.6436 157.603 87.6161C157.116 86.823 156.588 86.0573 155.985 85.3411C158.137 84.9499 160.401 84.2908 161.883 82.9938C162.781 85.111 163.766 87.0187 165.637 88.4898ZM133.315 40.8668C132.958 41.3207 132.621 41.8224 132.311 42.3331C132.595 41.7455 132.934 41.263 133.315 40.8668ZM133.491 48.3163C133.477 48.4442 133.684 48.4951 133.804 48.4951C134.159 48.4951 134.514 48.4951 134.868 48.4951C135.1 48.4951 135.413 48.4124 135.562 48.2188C135.713 48.022 135.434 47.9483 135.288 47.9483C134.933 47.9483 134.578 47.9483 134.224 47.9483C133.992 47.9483 133.679 48.031 133.531 48.2246C133.519 48.2398 133.514 48.2528 133.508 48.2661C133.752 47.5189 133.968 46.8146 134.111 46.1843C135.181 44.6161 136.385 43.1042 138.114 42.2941C137.938 44.1199 138.137 45.9933 139.643 47.2408C140.635 48.0628 141.942 48.2788 143.167 48.5157C144.296 48.7342 143.557 50.0207 143.692 50.8196C143.745 51.1371 143.876 51.4192 144.049 51.676C144.054 51.6836 144.058 51.6908 144.063 51.698C144.375 52.1531 144.83 52.5197 145.297 52.8209C145.3 52.8227 145.303 52.8245 145.305 52.826C145.372 52.8689 145.438 52.9126 145.505 52.9531C146.098 53.3128 146.752 53.5418 147.395 53.7986C147.433 53.8138 147.472 53.8293 147.51 53.8448C147.908 54.0066 148.299 54.1833 148.665 54.4122C148.783 54.4863 148.886 54.5773 148.98 54.6763C149.376 55.2144 149.559 55.8439 149.393 56.6299C149.363 56.7718 149.324 56.9018 149.277 57.0225C148.765 57.9189 147.119 57.9864 146.236 58.0052C146.038 58.0095 145.515 58.0962 145.515 58.3891C145.515 60.9434 145.515 63.4979 145.515 66.0522C145.515 66.4152 146.111 66.3877 146.405 66.1862C146.731 66.2963 147.111 66.4014 147.535 66.4953C146.695 70.1371 141.652 72.5284 138.209 71.5709C135.678 70.8677 136.344 67.2372 136.261 65.1774C136.261 65.1745 136.261 65.1716 136.261 65.1691C136.393 65.1402 136.523 65.1088 136.654 65.0788C136.819 65.0409 136.986 65.0041 137.149 64.965C136.94 65.4848 136.728 65.946 136.602 66.2627C136.383 66.8128 137.434 66.7821 137.599 66.3678C138.097 65.1182 139.456 62.5441 138.597 61.1691C137.978 60.1777 136.466 60.1838 135.46 59.9032C129.809 58.3277 132.085 52.6111 133.491 48.3163ZM137.308 64.4775L137.465 64.1018C137.424 64.2268 137.382 64.3503 137.337 64.4728C137.329 64.4735 137.317 64.4764 137.308 64.4775ZM58.5315 44.7458C58.1982 44.3221 57.8496 43.9183 57.4769 43.5441C57.9804 43.8627 58.3119 44.3087 58.5315 44.7458ZM47.1307 51.9386C46.2238 52.8072 44.528 53.0618 43.342 53.7726C44.2077 53.1033 45.756 52.6996 47.1307 51.9386ZM43.0238 56.243C42.4874 54.2873 45.2331 53.687 46.4777 53.1185C47.3535 52.7187 48.0549 52.1361 48.5866 51.3372C48.6899 51.1812 48.7339 50.9442 48.7498 50.6734C49.4382 49.8069 49.1182 49.1384 48.7914 48.7656C48.83 48.6436 48.8914 48.5594 48.9889 48.5356C50.3256 48.2094 51.5955 48.0433 52.7455 47.2126C54.175 46.1807 54.5207 44.4973 54.4697 42.8438C54.6745 42.8756 54.9627 42.92 55.3647 42.9822C56.5996 43.8602 57.5581 45.0835 58.4333 46.3646C58.5456 46.8626 58.7023 47.4022 58.8815 47.9692C58.8298 47.9555 58.7771 47.9483 58.7349 47.9483C58.3802 47.9483 58.0251 47.9483 57.6705 47.9483C57.439 47.9483 57.1255 48.031 56.977 48.2246C56.8253 48.4214 57.1052 48.4951 57.2508 48.4951C57.6055 48.4951 57.9605 48.4951 58.3152 48.4951C58.5312 48.4951 58.8136 48.4189 58.9714 48.252C60.3684 52.5811 62.8306 58.357 57.0377 59.9718C56.03 60.2528 54.8046 60.256 54.0735 61.1109C52.951 62.4238 54.426 65.228 54.9147 66.4545C55.6255 67.8331 56.5035 70.0294 55.1408 71.2899C53.5415 72.7686 50.6514 71.3195 49.3436 70.2032C48.0574 69.1052 47.3311 67.4954 47.0238 65.8669C47.0238 63.3365 47.0238 60.8061 47.0238 58.2757C47.0238 58.0904 46.8677 58.0085 46.6933 58.0048C45.3371 57.9767 43.4496 57.7939 43.0238 56.243ZM46.0193 66.3458C46.8836 70.3866 50.598 73.2016 54.7432 72.0444C57.6033 71.2462 57.0171 68.2225 55.9618 66.1746C55.8429 65.8763 55.6562 65.4685 55.4662 65.012C56.0192 64.7122 56.5992 64.4663 57.2017 64.2691C61.7348 68.6245 64.1218 74.5759 66.1953 80.3941C68.7484 87.5598 70.4481 94.9227 71.2322 102.491C70.4799 102.948 69.7203 103.395 68.9503 103.819C67.2387 104.761 65.4737 105.594 63.6223 106.195C62.7226 106.487 61.8027 106.726 60.8582 106.895C56.6762 107.643 52.4233 106.67 48.4641 105.347C48.3735 105.317 48.2175 105.339 48.0589 105.388C48.0412 105.393 48.0235 105.4 48.0062 105.405C48.0304 105.314 48.056 105.223 48.0802 105.131C49.3187 100.431 50.0627 95.5562 50.1039 90.7013C50.1147 90.6677 50.118 90.6334 50.1068 90.598C49.9645 90.1584 49.8323 89.7113 49.703 89.2609C51.8823 88.852 55.3748 87.0259 55.7523 84.6223C55.9632 83.2791 55.7714 81.7141 54.4026 81.09C53.8771 80.8506 53.2735 80.9098 52.6993 81.085C53.0319 79.9762 53.3624 77.7943 52.2019 77.1915C51.6587 76.9094 50.9884 77.1475 50.6063 77.5913C49.9623 78.339 49.5679 79.252 49.2215 80.1994C48.653 75.3723 46.4195 70.4867 43.7356 66.539C44.4829 66.4303 45.245 66.3653 46.0193 66.3458ZM51.5764 81.5596C51.5366 81.5805 51.4966 81.6007 51.4583 81.6213C51.0133 81.8568 52.0705 81.7412 52.2568 81.6426C54.706 80.3442 55.0657 84.1347 54.4929 85.4393C53.7636 87.0989 51.5251 88.6162 49.7896 88.9095C49.7326 88.9189 49.6737 88.9358 49.6159 88.9571C49.1919 87.464 48.7841 85.9421 48.1705 84.5263C48.1232 84.4168 48.0751 84.3081 48.0253 84.2005C48.0481 84.1969 48.0712 84.1929 48.0936 84.1886C48.2814 84.151 48.4594 84.0777 48.5309 83.9805C49.4335 82.7551 49.9168 81.2457 50.4629 79.8415C50.7272 79.1617 50.9924 78.473 51.3896 77.8582C51.4214 77.8319 51.4442 77.8099 51.4615 77.7911C51.7078 78.0443 51.7667 78.504 51.8458 78.8226C52.0687 79.7147 51.8693 80.614 51.5749 81.4559C51.5605 81.4974 51.5634 81.531 51.5764 81.5596ZM32.9343 102.192C28.4988 102.541 27.6673 98.3455 27.8389 94.8772C28.0711 90.1906 29.457 85.5885 30.2266 80.9755C30.245 80.9423 30.2591 80.9076 30.2627 80.8704C30.4762 78.5683 31.3199 76.2651 32.3955 74.2407C34.5874 70.1147 38.2938 67.6478 42.6088 66.7388C45.647 71.1353 48.2034 76.8683 48.3063 82.2707C48.3077 82.3516 48.3381 82.413 48.3843 82.46C48.2048 82.8775 48.0015 83.2802 47.758 83.658C47.6331 83.4182 47.5027 83.1812 47.3607 82.9504C47.2271 82.7327 46.7005 82.91 46.5514 83.0046C44.4464 84.3424 42.3299 85.6629 40.2131 86.9819C40.4291 85.2269 40.6581 83.4695 40.9755 81.7308C41.0481 81.3317 39.9939 81.5112 39.9296 81.864C39.5782 83.7887 39.334 85.7355 39.0974 87.6779C37.0243 88.9687 34.9511 90.2606 32.8881 91.5681C32.2897 91.9473 33.2063 92.0723 33.5335 91.865C35.6406 90.5297 37.7582 89.2103 39.8758 87.892C39.9335 87.8646 39.9852 87.8332 40.0271 87.7974C42.2162 86.4347 44.4038 85.0695 46.5824 83.6894C47.805 85.855 48.2843 88.4501 49.0348 90.7977C46.8876 92.3233 45.0969 94.425 43.1603 96.1947C40.3789 98.7381 36.8665 101.882 32.9343 102.192ZM34.1703 116.287C33.4082 115.061 33.1623 113.496 33.2103 112.074C33.2403 111.186 34.4004 109.747 34.9244 108.76C36.1058 106.537 37.5025 103.957 37.5957 101.383C37.5993 101.284 37.5689 101.208 37.518 101.15C39.1982 100.229 40.7552 99.0213 42.1317 97.8897C44.5356 95.913 46.6005 93.4137 49.0489 91.4821C48.9514 96.6263 48.0416 101.732 46.6702 106.682C45.4852 110.962 43.9 115.421 41.2793 119.061C38.5264 119.267 35.7306 118.795 34.1703 116.287ZM23.23 181.975C19.8916 180.284 16.8144 177.109 14.5459 174.308C12.9784 172.373 12.2553 170.569 12.5775 168.053C12.9311 165.289 14.9941 163.106 16.9043 161.186C17.735 164.488 19.6395 167.35 22.3425 169.379C22.8829 173.482 24.0513 177.84 23.23 181.975ZM70.758 130.7C69.1305 140.797 63.6739 149.265 56.5772 156.426C56.419 156.445 56.2673 156.518 56.1817 156.655C56.1647 156.682 56.1532 156.71 56.1369 156.737C54.7811 156.931 53.4007 156.783 52.0661 156.486C51.4648 156.353 45.0366 153.565 46.1627 152.639C49.7246 149.709 52.6256 146.032 54.8638 142.015C59.3127 134.03 60.6653 124.54 59.6385 115.536C59.6381 115.533 59.6382 115.529 59.6374 115.527C59.6374 115.524 59.6371 115.521 59.6367 115.518C59.6338 115.492 59.6143 115.472 59.5836 115.458C59.3781 115.341 58.6763 115.481 58.5933 115.736C55.7227 124.503 51.969 132.914 47.3084 140.853C46.4704 142.281 45.6062 143.695 44.709 145.091C40.2579 152.017 35.114 158.462 29.6061 164.576C27.9837 166.376 26.3292 168.148 24.6519 169.894C24.2105 169.636 23.7872 169.359 23.3842 169.061C23.3759 169.005 23.3221 168.971 23.2444 168.955C20.0856 166.562 18.1244 162.995 17.5891 158.989C17.4454 157.914 17.4035 158.001 18.0124 157.254C19.3123 155.658 20.5984 154.051 21.8712 152.433C29.6133 142.589 36.9856 131.973 40.7144 119.895C40.9474 119.887 41.181 119.874 41.4165 119.853C41.7196 119.827 41.9182 119.606 41.9503 119.403C44.791 115.632 46.4213 111.008 47.7075 106.513C47.7653 106.31 47.8165 106.105 47.8725 105.902C51.5666 107.116 55.3398 107.894 59.2163 107.587C59.4247 107.571 59.6335 107.55 59.8429 107.527C59.9715 107.513 60.1001 107.502 60.229 107.485C64.1944 106.975 67.8578 105.143 71.2607 103.112C71.3066 112.288 72.2265 121.593 70.758 130.7ZM94.0837 49.367C92.9536 55.5402 90.0527 61.2305 86.5894 66.4296C85.1194 68.6371 83.7513 71.2029 81.227 72.246C81.019 72.3319 80.8055 72.4114 80.5809 72.4757C80.2146 72.5804 79.843 72.6667 79.4692 72.7458C78.4658 72.9575 77.4437 73.1128 76.4537 73.4024C74.8115 73.8839 73.1724 74.4542 71.4468 74.5167C71.2914 74.5224 71.0849 74.6228 70.9353 74.7399C70.7872 74.8139 70.6876 74.8981 70.7204 74.9566C70.7295 74.9728 70.7378 74.9894 70.7468 75.0061C70.7493 75.0292 70.7587 75.0512 70.7807 75.0682C73.1981 79.4135 75.1315 84.0701 76.8434 88.7282C78.4929 93.2161 79.8155 97.8225 80.7669 102.508C81.1692 104.489 80.6842 106.164 79.6801 107.501C79.367 107.918 79.0032 108.303 78.6002 108.653C77.0832 109.971 75.0094 110.811 72.9716 111.12C72.803 111.145 72.6256 111.23 72.5151 111.318C72.4176 108.314 72.3078 105.315 72.3031 102.338C72.3031 102.324 72.297 102.312 72.2879 102.3C72.2876 102.298 72.2879 102.296 72.2879 102.294C71.5067 94.6886 69.7857 87.3174 67.2412 80.1134C65.1916 74.3101 62.7793 68.3315 58.3069 63.9559C59.0931 63.7746 59.9065 63.6619 60.7321 63.5947C61.3422 63.5445 61.9587 63.5203 62.577 63.5164C64.7878 63.503 67.0148 63.7367 68.9976 63.9079C72.5707 64.2163 75.7473 64.7675 79.2113 63.5337C80.1417 63.2025 80.501 62.4711 80.981 61.6765C81.9374 60.0942 82.8483 58.4838 83.7718 56.882C85.5383 53.8185 87.151 50.4028 89.3773 47.6381C89.439 47.5615 89.4672 47.4932 89.4748 47.4318C89.8847 47.6319 90.2957 47.8248 90.7122 48.0032C90.762 48.0606 90.848 48.0906 90.9484 48.1004C91.8213 48.4608 92.7167 48.7541 93.668 48.9079C93.7529 48.9217 93.8898 48.8917 94.0281 48.84C94.0823 48.8202 94.1361 48.7971 94.1878 48.7718C94.156 48.9711 94.1198 49.1691 94.0837 49.367ZM95.0062 46.1041C94.9325 46.172 94.8877 46.2515 94.8993 46.3396C94.9007 46.3519 94.9032 46.3638 94.905 46.3765C94.7541 46.7879 94.5912 47.1913 94.4073 47.5777C94.3752 47.6157 94.3542 47.6572 94.3485 47.7013C94.3199 47.9241 94.2824 48.1451 94.2491 48.3665C93.3632 48.2159 92.5282 47.9371 91.7144 47.5958C91.7451 45.2182 92.0864 42.8326 92.5589 40.5067C93.0208 38.2316 93.7608 34.5224 95.8708 33.0159C96.8705 35.5358 96.5881 38.414 96.1749 41.0333C95.9145 42.6838 95.5743 44.4655 95.0062 46.1041ZM121.326 74.5047C119.61 74.4112 117.971 73.8702 116.334 73.3811C114.715 72.8968 112.984 72.7664 111.403 72.1958C108.601 71.1845 107.022 67.81 105.448 65.5108C101.476 59.7096 96.9489 53.3085 95.9633 46.1742C96.5134 44.6121 96.8478 42.9406 97.1443 41.3464C97.651 38.6184 97.9739 35.4607 96.9453 32.8032C98.5641 33.1968 98.8704 35.5105 98.7848 37.8766C98.4576 39.5105 98.3131 41.1969 98.29 42.8583C98.2835 43.2852 99.3103 43.0663 99.3356 42.7243C99.4139 41.6639 99.7101 39.9104 99.8098 38.1337C101.731 40.0375 100.54 42.9294 100.335 45.497C100.051 45.553 99.7849 45.7556 99.8586 46.0207C101.235 50.9782 105.079 55.1108 108.335 58.9493C109.659 60.5096 111.515 62.9515 113.522 63.6663C114.772 64.1116 116.123 64.2553 117.39 64.6757C119.077 65.2359 120.771 65.6823 122.554 65.7477C122.654 65.7517 122.754 65.7235 122.847 65.6791C122.888 65.6589 122.929 65.6368 122.967 65.6105C122.925 65.6831 122.887 65.7589 122.847 65.8329C121.493 68.3334 120.871 71.671 121.326 74.5047ZM136.643 97.6983C135.686 94.066 134.848 90.4441 133.006 87.1347C131.825 85.0138 130.393 83.2426 129.694 80.8647C128.952 78.3429 129.321 75.7324 130.412 73.3833C130.653 72.8647 129.598 72.9145 129.42 73.2966C128.8 74.6315 128.459 75.9747 128.357 77.3103C126.535 76.9351 124.816 76.2236 123.033 75.6966C122.931 75.6666 122.815 75.6771 122.701 75.7118C122.704 75.6742 122.703 75.6352 122.691 75.5944C121.703 72.4406 122.417 67.9541 124.269 65.2189C125.748 65.5837 127.249 65.7184 128.778 65.7282C128.883 65.7289 129.163 65.6307 129.369 65.5292C131.278 65.912 133.28 65.7423 135.214 65.3815C135.319 67.0747 135.018 68.8766 135.625 70.4907C136.208 72.0408 138.013 72.2879 139.444 72.3319C142.818 72.4352 147.454 70.1035 148.491 66.6766C149.613 66.8576 150.889 66.954 152.082 66.8869C152.074 66.9974 152.157 67.0956 152.394 67.1339C155.54 67.6356 157.443 71.0256 158.787 73.5852C160.054 75.9968 160.982 78.5694 162.241 80.9831C161.195 84.1225 155.957 84.7021 152.954 85.0478C152.955 85.0366 152.955 85.025 152.95 85.0138C151.725 82.2718 150.188 79.5977 149.917 76.5522C149.897 76.3308 148.843 76.5302 148.87 76.8322C149.141 79.8779 150.678 82.5524 151.903 85.2938C151.922 85.3353 151.963 85.3616 152.016 85.3768C151.857 85.6101 151.922 85.8969 152.377 85.8424C153.095 85.7564 153.934 85.6621 154.823 85.5318C155.518 86.3231 156.106 87.1838 156.642 88.0773C157.256 91.1105 157.942 94.1143 159.493 96.8177C159.152 97.0312 158.8 97.2335 158.435 97.4198C156.576 98.3665 154.434 98.9631 152.27 99.2867C150.468 99.5558 148.651 99.6382 146.97 99.5684C144.051 99.4474 140.97 98.9956 138.113 98.1638C138.07 98.1299 137.999 98.1122 137.914 98.1082C137.484 97.9807 137.06 97.8442 136.643 97.6983ZM168.187 159.371C169.108 162.133 166.447 165.784 164.961 167.862C164.054 169.131 159.77 175.01 157.821 173.524C155.62 171.846 158.37 166.957 158.964 165.058C159.98 161.811 159.172 159.361 155.748 158.378C156.011 158.131 156.259 157.886 156.491 157.648C157.714 156.394 158.974 154.855 159.99 153.194C162.325 155.702 166.61 155.946 168.187 159.371ZM186.691 168.251C186.43 168.482 186.162 168.706 185.887 168.92C185.204 169.455 184.477 169.933 183.703 170.345C181.652 168.117 179.623 165.863 177.64 163.572C173.992 159.357 170.501 155.009 167.326 150.436C165.75 148.164 164.249 145.839 162.848 143.445C160.265 139.033 157.771 134.532 155.598 129.891C155.178 128.996 154.771 128.094 154.377 127.187C153.111 124.274 151.986 121.302 151.06 118.26C151.062 118.215 151.05 118.177 151.025 118.144C150.682 117.008 150.362 115.864 150.076 114.708C150.025 114.503 148.976 114.773 149.029 114.988C149.312 116.133 149.628 117.27 149.967 118.402C147.478 122.957 146.599 128.206 143.946 132.678C143.873 132.802 143.926 132.946 144.039 133.022C150.491 137.361 156.11 142.63 160.811 148.822C160.253 151.354 158.523 153.75 156.957 155.744C155.427 157.693 152.346 161.254 149.531 159.816C147.565 158.044 145.617 156.25 143.683 154.444C143.078 153.879 142.47 153.319 141.869 152.75C139.714 150.712 137.583 148.589 135.765 146.249C134.041 144.029 132.598 141.615 131.691 138.885C130.44 135.12 130.908 130.973 131.382 127.112C131.847 123.315 132.427 119.427 133.53 115.759C135.176 110.287 137.84 104.697 138.127 98.9111C141.148 99.7147 144.344 100.123 147.418 100.194C151.48 100.286 156.28 99.4402 159.842 97.3198C162.568 101.005 164.469 105.175 165.905 109.517C167.348 113.883 167.978 118.448 169.391 122.823C170.745 127.014 172.757 130.944 175.334 134.513C177.522 137.544 180.239 140.121 182.768 142.858C186.596 147.002 190.324 151.241 194.017 155.504C194.166 155.676 193.921 156.458 193.855 156.743C193.52 158.168 192.881 159.515 192.203 160.803C192.104 160.989 192.003 161.175 191.901 161.361C191.794 161.441 191.725 161.542 191.738 161.657C190.387 164.084 188.751 166.418 186.691 168.251ZM201.325 180.495C199.136 183.217 195.608 180.755 194.073 178.678C191.55 175.261 191.535 170.616 187.959 167.892C187.943 167.88 187.925 167.871 187.906 167.863C189.164 166.632 190.244 165.21 191.372 163.624C191.584 163.326 191.796 163.019 192.006 162.706C192.664 164.517 194.242 166.033 195.556 167.328C197.362 169.107 199.412 170.65 201.113 172.533C201.115 172.536 201.115 172.538 201.116 172.541C202.551 174.966 203.239 178.114 201.325 180.495ZM53.6188 48.6858C54.0786 48.3983 54.5738 48.3322 55.105 48.3319C55.2864 48.3315 55.528 48.4615 55.3969 48.6703C55.2582 48.8902 54.949 48.9639 54.7081 48.9639C54.585 48.9639 54.5319 48.9607 54.4217 48.9769C54.3953 48.9809 54.3816 48.9823 54.3726 48.9827C54.3639 48.9867 54.3509 48.9917 54.3242 49.0011C54.3823 48.9809 54.2563 49.0492 54.2783 49.0354C54.0764 49.1618 53.7593 49.2435 53.535 49.1254C53.3129 49.0073 53.4668 48.7812 53.6188 48.6858ZM54.798 50.8428C54.8053 51.049 54.9115 51.2957 55.0043 51.4874C55.1177 51.7229 54.7428 51.9411 54.5766 51.9855C54.3343 52.0505 54.0724 52.0061 53.9572 51.7681C53.8279 51.4994 53.7478 51.2216 53.7376 50.9229C53.729 50.6654 54.1169 50.5159 54.3144 50.5007C54.5524 50.4827 54.789 50.5816 54.798 50.8428ZM52.1947 57.804C53.1692 58.4119 54.4253 57.5613 54.9971 56.8029C55.0332 56.7548 55.0039 56.7288 54.9501 56.7133C55.0455 56.549 55.0003 56.3373 54.7858 56.2878C53.8713 56.0769 52.9553 55.7034 52.5562 54.7868C52.4873 54.6282 52.3135 54.5647 52.1264 54.5657C52.1282 54.5509 52.129 54.5358 52.1311 54.521C52.1481 54.4003 51.1292 54.4848 51.0845 54.8016C50.936 55.8512 51.2343 57.2056 52.1947 57.804ZM54.0255 56.9329C54.0049 56.9517 53.9814 56.9672 53.9648 56.9889C53.8287 57.1695 53.6957 57.3186 53.5307 57.4689C53.3295 57.609 53.2934 57.6336 53.4205 57.5425C53.3353 57.5245 53.2555 57.4931 53.1811 57.4486C52.8603 57.2872 52.6462 56.9629 52.4786 56.6588C52.3749 56.4702 52.2958 56.268 52.2348 56.0599C52.7264 56.4951 53.3552 56.762 54.0255 56.9329ZM57.2967 51.84C57.0594 51.4304 58.0739 51.0869 58.2646 51.4152C58.6045 52.0014 59.1321 52.6642 59.208 53.3573C59.2918 54.1255 58.6204 54.4747 57.9291 54.4993C57.2093 54.5253 57.5141 53.8846 58.0573 53.8651C58.1003 53.8636 58.1288 53.8636 58.1519 53.864C58.1667 53.7856 58.1758 53.7177 58.1613 53.6375C58.1209 53.4118 58.0439 53.1954 57.945 52.9889C57.7546 52.5908 57.5173 52.221 57.2967 51.84ZM58.1086 50.2775C58.0074 50.0677 58.4286 49.8874 58.5557 49.8531C58.7533 49.8004 59.0512 49.7813 59.1553 49.9972C59.2726 50.2407 59.3564 50.4989 59.4745 50.7423C59.576 50.9526 59.1542 51.1331 59.0274 51.1671C58.8295 51.2198 58.5326 51.239 58.4279 51.0233C58.3098 50.7796 58.226 50.5217 58.1086 50.2775ZM135.25 51.6532C135.038 52.0195 133.769 53.8261 134.743 53.8611C134.926 53.8676 135.169 53.9936 135.037 54.2078C134.903 54.426 134.588 54.5127 134.349 54.5036C132.452 54.4354 133.765 52.4695 134.268 51.6023C134.456 51.278 135.514 51.1982 135.25 51.6532ZM137.142 48.6255C137.281 48.4059 137.59 48.3315 137.831 48.3319C138.242 48.3322 138.648 48.3734 139.004 48.5959C139.214 48.727 139.084 48.9303 138.921 49.0351C138.733 49.155 138.386 49.255 138.177 49.125C137.937 48.9748 137.711 48.9643 137.434 48.9639C137.253 48.9632 137.011 48.8343 137.142 48.6255ZM137.558 51.5684C137.657 51.3639 137.733 51.1519 137.741 50.9229C137.757 50.4516 138.82 50.2959 138.801 50.8424C138.792 51.1321 138.683 51.4279 138.559 51.6868C138.444 51.9259 138.126 52.0368 137.877 52.0072C137.659 51.9812 137.445 51.8049 137.558 51.5684ZM137.677 56.8913C137.575 56.9509 137.513 57.0069 137.535 57.0362C138.273 58.015 139.283 58.2439 140.347 57.5808C141.311 56.9791 141.602 55.5662 141.455 54.5206C141.435 54.3812 140.944 54.4379 140.641 54.5719C140.389 54.5679 140.094 54.6759 140.007 54.8745C139.629 55.7432 138.84 56.0848 137.966 56.2864C137.532 56.3868 137.478 56.7209 137.677 56.8913ZM140.4 55.8501C140.344 56.208 140.232 56.5573 140.068 56.8924C140.004 57.0221 139.713 57.5682 139.544 57.5379C139.177 57.4718 138.87 57.1283 138.647 56.8393C139.305 56.6364 139.925 56.3236 140.4 55.8501ZM133.098 50.8601C133.216 50.6167 133.3 50.3584 133.417 50.115C133.578 49.7834 134.629 49.683 134.398 50.1601C134.28 50.4036 134.197 50.6618 134.079 50.9052C133.918 51.2368 132.867 51.3379 133.098 50.8601Z" fill="#D0021B"/>
</svg>
